<?xml version="1.0" encoding="UTF-8" standalone="no"?>
<!-- Generator: Adobe Illustrator 26.0.3, SVG Export Plug-In . SVG Version: 6.00 Build 0)  -->

<svg version="1.1" id="Logo_-_2022" x="0px" y="0px" viewBox="0 0 202.19999 132.3" xml:space="preserve" fill="#ffffff"
	sodipodi:docname="Mollie-Logo-Black-2023-Clearspace.svg" width="202.2" height="132.3"
	inkscape:version="1.4 (86a8ad7, 2024-10-11)" xmlns:inkscape="http://www.inkscape.org/namespaces/inkscape"
	xmlns:sodipodi="http://sodipodi.sourceforge.net/DTD/sodipodi-0.dtd" xmlns="http://www.w3.org/2000/svg"
	xmlns:svg="http://www.w3.org/2000/svg">
	<defs id="defs1" />
	<sodipodi:namedview id="namedview1" pagecolor="#ffffff" bordercolor="#000000" borderopacity="0.25"
		inkscape:showpageshadow="2" inkscape:pageopacity="0.0" inkscape:pagecheckerboard="0"
		inkscape:deskcolor="#d1d1d1" inkscape:zoom="1.8216195" inkscape:cx="4.3916966" inkscape:cy="41.995599"
		inkscape:window-width="2560" inkscape:window-height="1369" inkscape:window-x="-8" inkscape:window-y="-8"
		inkscape:window-maximized="1" inkscape:current-layer="Logo_-_2022" />
	<style type="text/css" id="style1">
		.st0 {
			fill-rule: evenodd;
			clip-rule: evenodd;
		}
	</style>
	<g id="g1" transform="translate(-129.3,-191.5)">
		<g id="g2">
			<g id="g3">
				<g id="g30">
					<g id="g29">
						<g id="g28">
							<g id="g27">
								<g id="g26">
									<g id="g25">
										<g id="g24">
											<g id="g23">
												<g id="g22">
													<g id="g21">
														<g id="g20">
															<g id="g19">
																<g id="g18">
																	<g id="g17">
																		<g id="g16">
																			<g id="g15">
																				<g id="g14">
																					<g id="g13">
																						<g id="g12">
																							<g id="g11">
																								<g id="g10">
																									<g id="g9">
																										<g id="g8">
																											<g id="g7">
																												<g
																													id="g6">
																													<g
																														id="g5">
																														<g
																															id="g4">
																															<path
																																class="st0"
																																d="m 278.2,191.7 c -1.8,-0.1 -3.4,-0.2 -5.2,-0.2 -16.2,0 -31.6,6.6 -42.7,18.4 -11.1,-11.7 -26.4,-18.4 -42.5,-18.4 -32.2,0 -58.5,26.2 -58.5,58.4 v 73.7 h 31.5 v -72.8 c 0,-13.4 11,-25.7 23.9,-27 0.9,-0.1 1.8,-0.1 2.7,-0.1 14.6,0 26.5,11.9 26.5,26.5 v 73.5 h 32.2 v -72.9 c 0,-13.3 10.9,-25.6 23.9,-26.9 0.9,-0.1 1.8,-0.1 2.7,-0.1 14.6,0 26.5,11.8 26.6,26.3 v 73.7 h 32.2 V 251 c 0,-14.8 -5.5,-29 -15.3,-40 -9.8,-11.2 -23.3,-18 -38,-19.3"
																																id="path1"
																																sodipodi:nodetypes="cscssccscssccscscccscc" />
																														</g>
																													</g>
																												</g>
																											</g>
																										</g>
																									</g>
																								</g>
																							</g>
																						</g>
																					</g>
																				</g>
																			</g>
																		</g>
																	</g>
																</g>
															</g>
														</g>
													</g>
												</g>
											</g>
										</g>
									</g>
								</g>
							</g>
						</g>
					</g>
				</g>
			</g>
		</g>
	</g>
</svg>